<svg width="540" height="384" viewBox="0 0 540 384" fill="none" xmlns="http://www.w3.org/2000/svg">
<path d="M0.75 28.75H539.25V376C539.25 380.004 536.004 383.25 532 383.25H7.99999C3.99593 383.25 0.75 380.004 0.75 376V28.75Z" fill="white" stroke="#01020F" stroke-width="1.5"/>
<path d="M8 0.75H532C536.004 0.75 539.25 3.99593 539.25 8V39.25H0.75V8C0.75 3.99594 3.99594 0.75 8 0.75Z" fill="white" stroke="#01020F" stroke-width="1.5"/>
<path d="M68.7883 92V83.768H71.5123L72.6883 87.98C72.7363 88.132 72.7843 88.312 72.8323 88.52C72.8803 88.728 72.9283 88.936 72.9763 89.144C73.0323 89.344 73.0763 89.524 73.1083 89.684H73.2043C73.2203 89.548 73.2483 89.388 73.2883 89.204C73.3283 89.012 73.3723 88.808 73.4203 88.592C73.4683 88.376 73.5203 88.168 73.5763 87.968L74.7523 83.768H77.4283V92H75.6643V88.1C75.6643 87.74 75.6643 87.38 75.6643 87.02C75.6723 86.652 75.6803 86.332 75.6883 86.06C75.7043 85.788 75.7123 85.612 75.7123 85.532H75.6163C75.6003 85.62 75.5603 85.784 75.4963 86.024C75.4403 86.256 75.3763 86.504 75.3043 86.768C75.2403 87.032 75.1803 87.26 75.1243 87.452L73.8403 92H72.2803L70.9843 87.464C70.9363 87.296 70.8803 87.1 70.8163 86.876C70.7603 86.644 70.7043 86.408 70.6483 86.168C70.6003 85.92 70.5523 85.708 70.5043 85.532H70.4083C70.4163 85.748 70.4243 86.008 70.4323 86.312C70.4403 86.608 70.4483 86.916 70.4563 87.236C70.4643 87.548 70.4683 87.836 70.4683 88.1V92H68.7883ZM83.4532 92.144C82.5812 92.144 81.8292 91.988 81.1972 91.676C80.5652 91.364 80.0812 90.892 79.7452 90.26C79.4092 89.628 79.2412 88.836 79.2412 87.884C79.2412 86.916 79.4092 86.12 79.7452 85.496C80.0812 84.864 80.5652 84.396 81.1972 84.092C81.8292 83.78 82.5812 83.624 83.4532 83.624C84.3412 83.624 85.0972 83.78 85.7212 84.092C86.3532 84.396 86.8372 84.864 87.1732 85.496C87.5092 86.12 87.6772 86.916 87.6772 87.884C87.6772 88.836 87.5092 89.628 87.1732 90.26C86.8372 90.892 86.3532 91.364 85.7212 91.676C85.0972 91.988 84.3412 92.144 83.4532 92.144ZM83.4532 90.68C83.8452 90.68 84.1892 90.624 84.4852 90.512C84.7812 90.4 85.0292 90.232 85.2292 90.008C85.4292 89.784 85.5812 89.512 85.6852 89.192C85.7892 88.864 85.8412 88.492 85.8412 88.076V87.704C85.8412 87.28 85.7892 86.904 85.6852 86.576C85.5812 86.248 85.4292 85.976 85.2292 85.76C85.0292 85.536 84.7812 85.368 84.4852 85.256C84.1892 85.144 83.8452 85.088 83.4532 85.088C83.0692 85.088 82.7292 85.144 82.4332 85.256C82.1372 85.368 81.8892 85.536 81.6892 85.76C81.4892 85.976 81.3372 86.248 81.2332 86.576C81.1372 86.904 81.0892 87.28 81.0892 87.704V88.076C81.0892 88.492 81.1372 88.864 81.2332 89.192C81.3372 89.512 81.4892 89.784 81.6892 90.008C81.8892 90.232 82.1372 90.4 82.4332 90.512C82.7292 90.624 83.0692 90.68 83.4532 90.68ZM89.4888 92V83.768H91.1328L94.4448 88.208C94.4928 88.264 94.5528 88.344 94.6248 88.448C94.6968 88.544 94.7648 88.64 94.8288 88.736C94.8928 88.832 94.9368 88.908 94.9608 88.964H95.0208C95.0208 88.828 95.0208 88.696 95.0208 88.568C95.0208 88.432 95.0208 88.312 95.0208 88.208V83.768H96.7128V92H95.0688L91.6848 87.452C91.6048 87.34 91.5208 87.216 91.4328 87.08C91.3448 86.944 91.2808 86.84 91.2408 86.768H91.1808C91.1808 86.888 91.1808 87.008 91.1808 87.128C91.1808 87.24 91.1808 87.348 91.1808 87.452V92H89.4888Z" fill="black"/>
<line x1="55" y1="94.5" x2="485" y2="94.5" stroke="black"/>
<path d="M136.902 92V85.268H134.262V83.768H141.354V85.268H138.702V92H136.902ZM146.486 92.144C145.734 92.144 145.086 92.024 144.542 91.784C144.006 91.544 143.594 91.184 143.306 90.704C143.018 90.216 142.874 89.612 142.874 88.892V83.768H144.674V88.844C144.674 89.436 144.83 89.892 145.142 90.212C145.454 90.524 145.902 90.68 146.486 90.68C147.07 90.68 147.518 90.524 147.83 90.212C148.15 89.892 148.31 89.436 148.31 88.844V83.768H150.11V88.892C150.11 89.612 149.966 90.216 149.678 90.704C149.39 91.184 148.974 91.544 148.43 91.784C147.894 92.024 147.246 92.144 146.486 92.144ZM152.258 92V83.768H158.834V85.232H154.058V87.068H158.282V88.52H154.058V90.524H158.906V92H152.258Z" fill="black"/>
<path d="M194.344 92L192.184 83.768H194.08L195.28 88.676C195.304 88.748 195.328 88.856 195.352 89C195.376 89.136 195.4 89.28 195.424 89.432C195.448 89.584 195.468 89.72 195.484 89.84H195.544C195.56 89.752 195.572 89.652 195.58 89.54C195.596 89.428 195.612 89.32 195.628 89.216C195.652 89.104 195.672 89 195.688 88.904C195.712 88.808 195.728 88.732 195.736 88.676L196.852 83.768H198.988L200.128 88.676C200.152 88.756 200.176 88.864 200.2 89C200.224 89.136 200.248 89.28 200.272 89.432C200.296 89.584 200.316 89.72 200.332 89.84H200.392C200.408 89.752 200.424 89.656 200.44 89.552C200.464 89.448 200.484 89.344 200.5 89.24C200.524 89.128 200.548 89.024 200.572 88.928C200.596 88.832 200.616 88.748 200.632 88.676L201.82 83.768H203.536L201.364 92H199.324L198.112 86.936C198.088 86.824 198.06 86.696 198.028 86.552C198.004 86.4 197.98 86.252 197.956 86.108C197.932 85.964 197.912 85.836 197.896 85.724H197.848C197.832 85.836 197.812 85.968 197.788 86.12C197.772 86.272 197.748 86.42 197.716 86.564C197.692 86.708 197.668 86.832 197.644 86.936L196.444 92H194.344ZM204.914 92V83.768H211.49V85.232H206.714V87.068H210.938V88.52H206.714V90.524H211.562V92H204.914ZM213.465 92V83.768H216.825C217.681 83.768 218.409 83.916 219.009 84.212C219.609 84.508 220.069 84.96 220.389 85.568C220.717 86.168 220.881 86.94 220.881 87.884C220.881 88.82 220.717 89.592 220.389 90.2C220.069 90.808 219.609 91.26 219.009 91.556C218.409 91.852 217.681 92 216.825 92H213.465ZM215.253 90.524H216.813C217.173 90.524 217.493 90.472 217.773 90.368C218.053 90.264 218.285 90.112 218.469 89.912C218.653 89.704 218.793 89.448 218.889 89.144C218.985 88.832 219.033 88.472 219.033 88.064V87.704C219.033 87.296 218.985 86.94 218.889 86.636C218.793 86.324 218.653 86.068 218.469 85.868C218.285 85.66 218.053 85.504 217.773 85.4C217.493 85.288 217.173 85.232 216.813 85.232H215.253V90.524Z" fill="black"/>
<path d="M260.475 92V85.268H257.835V83.768H264.927V85.268H262.275V92H260.475ZM266.494 92V83.768H268.282V87.032H271.93V83.768H273.718V92H271.93V88.544H268.282V92H266.494ZM279.465 92.144C278.713 92.144 278.065 92.024 277.521 91.784C276.985 91.544 276.573 91.184 276.285 90.704C275.997 90.216 275.853 89.612 275.853 88.892V83.768H277.653V88.844C277.653 89.436 277.809 89.892 278.121 90.212C278.433 90.524 278.881 90.68 279.465 90.68C280.049 90.68 280.497 90.524 280.809 90.212C281.129 89.892 281.289 89.436 281.289 88.844V83.768H283.089V88.892C283.089 89.612 282.945 90.216 282.657 90.704C282.369 91.184 281.953 91.544 281.409 91.784C280.873 92.024 280.225 92.144 279.465 92.144Z" fill="black"/>
<path d="M323.382 92V83.768H329.454V85.232H325.17V87.272H328.998V88.724H325.17V92H323.382ZM331.207 92V83.768H335.719C336.327 83.768 336.831 83.876 337.231 84.092C337.639 84.308 337.943 84.612 338.143 85.004C338.343 85.388 338.443 85.832 338.443 86.336C338.443 86.872 338.323 87.348 338.083 87.764C337.843 88.172 337.495 88.484 337.039 88.7L338.719 92H336.739L335.287 89H332.995V92H331.207ZM332.995 87.584H335.479C335.839 87.584 336.119 87.476 336.319 87.26C336.519 87.036 336.619 86.736 336.619 86.36C336.619 86.12 336.575 85.916 336.487 85.748C336.399 85.572 336.271 85.44 336.103 85.352C335.935 85.264 335.727 85.22 335.479 85.22H332.995V87.584ZM340.333 92V83.768H342.121V92H340.333Z" fill="black"/>
<path d="M386.752 92.144C386.272 92.144 385.816 92.096 385.384 92C384.952 91.904 384.568 91.752 384.232 91.544C383.904 91.328 383.644 91.06 383.452 90.74C383.268 90.412 383.176 90.016 383.176 89.552C383.176 89.512 383.176 89.472 383.176 89.432C383.176 89.384 383.18 89.348 383.188 89.324H384.964C384.956 89.348 384.952 89.38 384.952 89.42C384.952 89.46 384.952 89.496 384.952 89.528C384.952 89.784 385.02 90 385.156 90.176C385.3 90.352 385.508 90.484 385.78 90.572C386.052 90.66 386.368 90.704 386.728 90.704C386.96 90.704 387.164 90.692 387.34 90.668C387.524 90.636 387.684 90.596 387.82 90.548C387.964 90.492 388.08 90.428 388.168 90.356C388.264 90.284 388.332 90.2 388.372 90.104C388.42 90.008 388.444 89.9 388.444 89.78C388.444 89.564 388.372 89.388 388.228 89.252C388.092 89.116 387.9 89 387.652 88.904C387.412 88.808 387.14 88.72 386.836 88.64C386.532 88.56 386.22 88.48 385.9 88.4C385.58 88.312 385.268 88.208 384.964 88.088C384.66 87.96 384.388 87.808 384.148 87.632C383.908 87.456 383.716 87.232 383.572 86.96C383.428 86.688 383.356 86.36 383.356 85.976C383.356 85.568 383.44 85.216 383.608 84.92C383.784 84.624 384.028 84.38 384.34 84.188C384.652 83.996 385.012 83.856 385.42 83.768C385.828 83.672 386.272 83.624 386.752 83.624C387.2 83.624 387.624 83.672 388.024 83.768C388.424 83.856 388.776 84 389.08 84.2C389.384 84.4 389.62 84.652 389.788 84.956C389.964 85.26 390.052 85.62 390.052 86.036V86.18H388.312V86.084C388.312 85.868 388.248 85.684 388.12 85.532C387.992 85.38 387.812 85.26 387.58 85.172C387.348 85.084 387.076 85.04 386.764 85.04C386.428 85.04 386.14 85.072 385.9 85.136C385.668 85.2 385.488 85.296 385.36 85.424C385.24 85.544 385.18 85.688 385.18 85.856C385.18 86.048 385.248 86.208 385.384 86.336C385.528 86.456 385.72 86.564 385.96 86.66C386.208 86.748 386.484 86.828 386.788 86.9C387.092 86.972 387.404 87.052 387.724 87.14C388.044 87.228 388.356 87.332 388.66 87.452C388.964 87.572 389.236 87.724 389.476 87.908C389.716 88.084 389.908 88.304 390.052 88.568C390.196 88.832 390.268 89.148 390.268 89.516C390.268 90.148 390.116 90.656 389.812 91.04C389.508 91.424 389.092 91.704 388.564 91.88C388.036 92.056 387.432 92.144 386.752 92.144ZM391.213 92L394.381 83.768H396.589L399.757 92H397.825L397.237 90.38H393.649L393.061 92H391.213ZM394.165 88.94H396.721L395.989 86.912C395.957 86.824 395.917 86.72 395.869 86.6C395.829 86.472 395.785 86.332 395.737 86.18C395.689 86.028 395.641 85.88 395.593 85.736C395.553 85.584 395.513 85.448 395.473 85.328H395.401C395.361 85.48 395.309 85.66 395.245 85.868C395.181 86.068 395.117 86.264 395.053 86.456C394.989 86.64 394.937 86.792 394.897 86.912L394.165 88.94ZM402.116 92V85.268H399.476V83.768H406.568V85.268H403.916V92H402.116Z" fill="black"/>
<path d="M447.422 92.144C446.942 92.144 446.486 92.096 446.054 92C445.622 91.904 445.238 91.752 444.902 91.544C444.574 91.328 444.314 91.06 444.122 90.74C443.938 90.412 443.846 90.016 443.846 89.552C443.846 89.512 443.846 89.472 443.846 89.432C443.846 89.384 443.85 89.348 443.858 89.324H445.634C445.626 89.348 445.622 89.38 445.622 89.42C445.622 89.46 445.622 89.496 445.622 89.528C445.622 89.784 445.69 90 445.826 90.176C445.97 90.352 446.178 90.484 446.45 90.572C446.722 90.66 447.038 90.704 447.398 90.704C447.63 90.704 447.834 90.692 448.01 90.668C448.194 90.636 448.354 90.596 448.49 90.548C448.634 90.492 448.75 90.428 448.838 90.356C448.934 90.284 449.002 90.2 449.042 90.104C449.09 90.008 449.114 89.9 449.114 89.78C449.114 89.564 449.042 89.388 448.898 89.252C448.762 89.116 448.57 89 448.322 88.904C448.082 88.808 447.81 88.72 447.506 88.64C447.202 88.56 446.89 88.48 446.57 88.4C446.25 88.312 445.938 88.208 445.634 88.088C445.33 87.96 445.058 87.808 444.818 87.632C444.578 87.456 444.386 87.232 444.242 86.96C444.098 86.688 444.026 86.36 444.026 85.976C444.026 85.568 444.11 85.216 444.278 84.92C444.454 84.624 444.698 84.38 445.01 84.188C445.322 83.996 445.682 83.856 446.09 83.768C446.498 83.672 446.942 83.624 447.422 83.624C447.87 83.624 448.294 83.672 448.694 83.768C449.094 83.856 449.446 84 449.75 84.2C450.054 84.4 450.29 84.652 450.458 84.956C450.634 85.26 450.722 85.62 450.722 86.036V86.18H448.982V86.084C448.982 85.868 448.918 85.684 448.79 85.532C448.662 85.38 448.482 85.26 448.25 85.172C448.018 85.084 447.746 85.04 447.434 85.04C447.098 85.04 446.81 85.072 446.57 85.136C446.338 85.2 446.158 85.296 446.03 85.424C445.91 85.544 445.85 85.688 445.85 85.856C445.85 86.048 445.918 86.208 446.054 86.336C446.198 86.456 446.39 86.564 446.63 86.66C446.878 86.748 447.154 86.828 447.458 86.9C447.762 86.972 448.074 87.052 448.394 87.14C448.714 87.228 449.026 87.332 449.33 87.452C449.634 87.572 449.906 87.724 450.146 87.908C450.386 88.084 450.578 88.304 450.722 88.568C450.866 88.832 450.938 89.148 450.938 89.516C450.938 90.148 450.786 90.656 450.482 91.04C450.178 91.424 449.762 91.704 449.234 91.88C448.706 92.056 448.102 92.144 447.422 92.144ZM456.287 92.144C455.535 92.144 454.887 92.024 454.343 91.784C453.807 91.544 453.395 91.184 453.107 90.704C452.819 90.216 452.675 89.612 452.675 88.892V83.768H454.475V88.844C454.475 89.436 454.631 89.892 454.943 90.212C455.255 90.524 455.703 90.68 456.287 90.68C456.871 90.68 457.319 90.524 457.631 90.212C457.951 89.892 458.111 89.436 458.111 88.844V83.768H459.911V88.892C459.911 89.612 459.767 90.216 459.479 90.704C459.191 91.184 458.775 91.544 458.231 91.784C457.695 92.024 457.047 92.144 456.287 92.144ZM462.059 92V83.768H463.703L467.015 88.208C467.063 88.264 467.123 88.344 467.195 88.448C467.267 88.544 467.335 88.64 467.399 88.736C467.463 88.832 467.507 88.908 467.531 88.964H467.591C467.591 88.828 467.591 88.696 467.591 88.568C467.591 88.432 467.591 88.312 467.591 88.208V83.768H469.283V92H467.639L464.255 87.452C464.175 87.34 464.091 87.216 464.003 87.08C463.915 86.944 463.851 86.84 463.811 86.768H463.751C463.751 86.888 463.751 87.008 463.751 87.128C463.751 87.24 463.751 87.348 463.751 87.452V92H462.059Z" fill="black"/>
<path d="M208.156 28V11.536H211.732V24.952H220.036V28H208.156ZM227.784 28.288C226.392 28.288 225.224 28.056 224.28 27.592C223.336 27.112 222.624 26.384 222.144 25.408C221.664 24.432 221.424 23.192 221.424 21.688C221.424 20.168 221.664 18.928 222.144 17.968C222.624 16.992 223.328 16.272 224.256 15.808C225.2 15.328 226.352 15.088 227.712 15.088C228.992 15.088 230.072 15.32 230.952 15.784C231.832 16.232 232.496 16.936 232.944 17.896C233.392 18.84 233.616 20.064 233.616 21.568V22.432H224.808C224.84 23.168 224.952 23.792 225.144 24.304C225.352 24.816 225.664 25.2 226.08 25.456C226.512 25.696 227.08 25.816 227.784 25.816C228.168 25.816 228.512 25.768 228.816 25.672C229.136 25.576 229.408 25.432 229.632 25.24C229.856 25.048 230.032 24.808 230.16 24.52C230.288 24.232 230.352 23.904 230.352 23.536H233.616C233.616 24.336 233.472 25.032 233.184 25.624C232.896 26.216 232.496 26.712 231.984 27.112C231.472 27.496 230.856 27.792 230.136 28C229.432 28.192 228.648 28.288 227.784 28.288ZM224.856 20.32H230.184C230.184 19.84 230.12 19.424 229.992 19.072C229.88 18.72 229.72 18.432 229.512 18.208C229.304 17.984 229.048 17.824 228.744 17.728C228.456 17.616 228.128 17.56 227.76 17.56C227.152 17.56 226.64 17.664 226.224 17.872C225.824 18.064 225.512 18.368 225.288 18.784C225.08 19.184 224.936 19.696 224.856 20.32ZM240.527 28.288C239.487 28.288 238.583 28.056 237.815 27.592C237.063 27.112 236.479 26.384 236.063 25.408C235.647 24.432 235.439 23.184 235.439 21.664C235.439 20.144 235.647 18.904 236.063 17.944C236.495 16.968 237.079 16.248 237.815 15.784C238.567 15.32 239.431 15.088 240.407 15.088C240.951 15.088 241.455 15.152 241.919 15.28C242.399 15.392 242.815 15.576 243.167 15.832C243.535 16.088 243.847 16.4 244.103 16.768H244.247V10.648H247.583V28H244.847L244.583 26.296H244.415C243.999 26.968 243.455 27.472 242.783 27.808C242.111 28.128 241.359 28.288 240.527 28.288ZM241.583 25.552C242.207 25.552 242.711 25.408 243.095 25.12C243.495 24.832 243.791 24.416 243.983 23.872C244.175 23.328 244.271 22.68 244.271 21.928V21.496C244.271 20.936 244.215 20.424 244.103 19.96C244.007 19.496 243.847 19.112 243.623 18.808C243.399 18.488 243.119 18.248 242.783 18.088C242.447 17.912 242.047 17.824 241.583 17.824C240.911 17.824 240.375 17.96 239.975 18.232C239.575 18.488 239.287 18.888 239.111 19.432C238.935 19.96 238.847 20.624 238.847 21.424V21.976C238.847 22.776 238.935 23.44 239.111 23.968C239.287 24.496 239.575 24.896 239.975 25.168C240.375 25.424 240.911 25.552 241.583 25.552ZM250.665 13.528V10.648H254.001V13.528H250.665ZM250.665 28V15.376H254.001V28H250.665ZM259.127 32.512C258.567 32.512 258.039 32.392 257.543 32.152C257.047 31.928 256.647 31.592 256.343 31.144C256.039 30.696 255.887 30.16 255.887 29.536C255.887 28.832 256.087 28.272 256.487 27.856C256.903 27.424 257.367 27.104 257.879 26.896C257.511 26.688 257.207 26.416 256.967 26.08C256.743 25.744 256.631 25.352 256.631 24.904C256.631 24.28 256.855 23.776 257.303 23.392C257.767 22.992 258.295 22.736 258.887 22.624C258.295 22.256 257.831 21.792 257.495 21.232C257.175 20.656 257.015 20.016 257.015 19.312C257.015 18.4 257.239 17.632 257.687 17.008C258.151 16.384 258.807 15.912 259.655 15.592C260.519 15.256 261.535 15.088 262.703 15.088C263.167 15.088 263.599 15.112 263.999 15.16C264.415 15.208 264.791 15.288 265.127 15.4C265.719 15.048 266.119 14.664 266.327 14.248C266.551 13.816 266.671 13.472 266.687 13.216H269.783C269.783 13.808 269.671 14.32 269.447 14.752C269.239 15.184 268.935 15.544 268.535 15.832C268.135 16.104 267.655 16.304 267.095 16.432C267.511 16.784 267.831 17.208 268.055 17.704C268.279 18.2 268.391 18.736 268.391 19.312C268.391 20.208 268.175 20.976 267.743 21.616C267.311 22.24 266.695 22.72 265.895 23.056C265.111 23.392 264.167 23.56 263.063 23.56H261.143C260.759 23.56 260.471 23.632 260.279 23.776C260.087 23.904 259.991 24.096 259.991 24.352C259.991 24.56 260.071 24.744 260.231 24.904C260.407 25.048 260.687 25.12 261.071 25.12H266.327C267.383 25.12 268.223 25.448 268.847 26.104C269.487 26.744 269.807 27.568 269.807 28.576C269.807 29.344 269.607 30.024 269.207 30.616C268.807 31.208 268.255 31.672 267.551 32.008C266.847 32.344 266.039 32.512 265.127 32.512H259.127ZM260.519 30.28H264.959C265.247 30.28 265.503 30.224 265.727 30.112C265.951 30.016 266.127 29.872 266.255 29.68C266.383 29.504 266.447 29.296 266.447 29.056C266.447 28.64 266.319 28.328 266.063 28.12C265.807 27.912 265.487 27.808 265.103 27.808H260.519C260.135 27.808 259.815 27.92 259.559 28.144C259.319 28.368 259.199 28.664 259.199 29.032C259.199 29.4 259.319 29.696 259.559 29.92C259.815 30.16 260.135 30.28 260.519 30.28ZM262.703 21.4C263.487 21.4 264.079 21.224 264.479 20.872C264.895 20.504 265.103 19.984 265.103 19.312C265.103 18.64 264.895 18.128 264.479 17.776C264.079 17.408 263.487 17.224 262.703 17.224C261.935 17.224 261.343 17.408 260.927 17.776C260.527 18.128 260.327 18.64 260.327 19.312C260.327 19.744 260.415 20.12 260.591 20.44C260.767 20.76 261.031 21 261.383 21.16C261.735 21.32 262.175 21.4 262.703 21.4ZM277.377 28.288C275.985 28.288 274.817 28.056 273.873 27.592C272.929 27.112 272.217 26.384 271.737 25.408C271.257 24.432 271.017 23.192 271.017 21.688C271.017 20.168 271.257 18.928 271.737 17.968C272.217 16.992 272.921 16.272 273.849 15.808C274.793 15.328 275.945 15.088 277.305 15.088C278.585 15.088 279.665 15.32 280.545 15.784C281.425 16.232 282.089 16.936 282.537 17.896C282.985 18.84 283.209 20.064 283.209 21.568V22.432H274.401C274.433 23.168 274.545 23.792 274.737 24.304C274.945 24.816 275.257 25.2 275.673 25.456C276.105 25.696 276.673 25.816 277.377 25.816C277.761 25.816 278.105 25.768 278.409 25.672C278.729 25.576 279.001 25.432 279.225 25.24C279.449 25.048 279.625 24.808 279.753 24.52C279.881 24.232 279.945 23.904 279.945 23.536H283.209C283.209 24.336 283.065 25.032 282.777 25.624C282.489 26.216 282.089 26.712 281.577 27.112C281.065 27.496 280.449 27.792 279.729 28C279.025 28.192 278.241 28.288 277.377 28.288ZM274.449 20.32H279.777C279.777 19.84 279.713 19.424 279.585 19.072C279.473 18.72 279.313 18.432 279.105 18.208C278.897 17.984 278.641 17.824 278.337 17.728C278.049 17.616 277.721 17.56 277.353 17.56C276.745 17.56 276.233 17.664 275.817 17.872C275.417 18.064 275.105 18.368 274.881 18.784C274.673 19.184 274.529 19.696 274.449 20.32ZM294.136 28.288C293.336 28.288 292.688 28.144 292.192 27.856C291.696 27.568 291.336 27.184 291.112 26.704C290.888 26.208 290.776 25.664 290.776 25.072V17.944H289.216V15.376H290.896L291.52 11.776H294.112V15.376H296.416V17.944H294.112V24.52C294.112 24.904 294.2 25.2 294.376 25.408C294.552 25.6 294.84 25.696 295.24 25.696H296.416V27.904C296.224 27.968 296 28.024 295.744 28.072C295.488 28.136 295.216 28.184 294.928 28.216C294.64 28.264 294.376 28.288 294.136 28.288ZM298.571 13.528V10.648H301.907V13.528H298.571ZM298.571 28V15.376H301.907V28H298.571ZM309.434 28.288C308.394 28.288 307.49 28.056 306.722 27.592C305.97 27.112 305.386 26.384 304.97 25.408C304.554 24.432 304.346 23.184 304.346 21.664C304.346 20.144 304.554 18.904 304.97 17.944C305.402 16.968 305.986 16.248 306.722 15.784C307.474 15.32 308.338 15.088 309.314 15.088C309.858 15.088 310.362 15.152 310.826 15.28C311.306 15.392 311.722 15.576 312.074 15.832C312.442 16.088 312.754 16.4 313.01 16.768H313.154V10.648H316.49V28H313.754L313.49 26.296H313.322C312.906 26.968 312.362 27.472 311.69 27.808C311.018 28.128 310.266 28.288 309.434 28.288ZM310.49 25.552C311.114 25.552 311.618 25.408 312.002 25.12C312.402 24.832 312.698 24.416 312.89 23.872C313.082 23.328 313.178 22.68 313.178 21.928V21.496C313.178 20.936 313.122 20.424 313.01 19.96C312.914 19.496 312.754 19.112 312.53 18.808C312.306 18.488 312.026 18.248 311.69 18.088C311.354 17.912 310.954 17.824 310.49 17.824C309.818 17.824 309.282 17.96 308.882 18.232C308.482 18.488 308.194 18.888 308.018 19.432C307.842 19.96 307.754 20.624 307.754 21.424V21.976C307.754 22.776 307.842 23.44 308.018 23.968C308.194 24.496 308.482 24.896 308.882 25.168C309.282 25.424 309.818 25.552 310.49 25.552ZM325.307 28.288C323.915 28.288 322.747 28.056 321.803 27.592C320.859 27.112 320.147 26.384 319.667 25.408C319.187 24.432 318.947 23.192 318.947 21.688C318.947 20.168 319.187 18.928 319.667 17.968C320.147 16.992 320.851 16.272 321.779 15.808C322.723 15.328 323.875 15.088 325.235 15.088C326.515 15.088 327.595 15.32 328.475 15.784C329.355 16.232 330.019 16.936 330.467 17.896C330.915 18.84 331.139 20.064 331.139 21.568V22.432H322.331C322.363 23.168 322.475 23.792 322.667 24.304C322.875 24.816 323.187 25.2 323.603 25.456C324.035 25.696 324.603 25.816 325.307 25.816C325.691 25.816 326.035 25.768 326.339 25.672C326.659 25.576 326.931 25.432 327.155 25.24C327.379 25.048 327.555 24.808 327.683 24.52C327.811 24.232 327.875 23.904 327.875 23.536H331.139C331.139 24.336 330.995 25.032 330.707 25.624C330.419 26.216 330.019 26.712 329.507 27.112C328.995 27.496 328.379 27.792 327.659 28C326.955 28.192 326.171 28.288 325.307 28.288ZM322.379 20.32H327.707C327.707 19.84 327.643 19.424 327.515 19.072C327.403 18.72 327.243 18.432 327.035 18.208C326.827 17.984 326.571 17.824 326.267 17.728C325.979 17.616 325.651 17.56 325.283 17.56C324.675 17.56 324.163 17.664 323.747 17.872C323.347 18.064 323.035 18.368 322.811 18.784C322.603 19.184 322.459 19.696 322.379 20.32ZM333.587 28V15.376H336.347L336.611 17.344H336.779C336.939 16.928 337.147 16.552 337.403 16.216C337.659 15.864 337.979 15.584 338.363 15.376C338.747 15.168 339.195 15.064 339.707 15.064C339.979 15.064 340.227 15.096 340.451 15.16C340.675 15.208 340.843 15.256 340.955 15.304V18.328H339.923C339.427 18.328 338.987 18.4 338.603 18.544C338.235 18.672 337.923 18.88 337.667 19.168C337.411 19.456 337.219 19.808 337.091 20.224C336.979 20.64 336.923 21.128 336.923 21.688V28H333.587Z" fill="#373F41"/>
</svg>
