<svg width="387" height="700" viewBox="0 0 387 700" fill="none" xmlns="http://www.w3.org/2000/svg">
<rect width="280" height="560" transform="translate(107 140)" fill="white"/>
<rect x="108" y="141" width="278" height="558" fill="#F2F2F2" stroke="black" stroke-width="2"/>
<rect x="196" y="141" width="28" height="68" stroke="black" stroke-width="2"/>
<line x1="249.293" y1="308.293" x2="263.293" y2="294.293" stroke="black" stroke-width="2"/>
<line x1="269.707" y1="490.707" x2="255.707" y2="504.707" stroke="black" stroke-width="2"/>
<line x1="271.707" y1="362.707" x2="257.707" y2="376.707" stroke="black" stroke-width="2"/>
<line x1="249.293" y1="460.293" x2="263.293" y2="446.293" stroke="black" stroke-width="2"/>
<line x1="269.707" y1="660.707" x2="255.707" y2="674.707" stroke="black" stroke-width="2"/>
<line x1="249.293" y1="630.293" x2="263.293" y2="616.293" stroke="black" stroke-width="2"/>
<line x1="269.707" y1="234.707" x2="255.707" y2="248.707" stroke="black" stroke-width="2"/>
<path d="M245.5 159.5C245.5 158.395 246.395 157.5 247.5 157.5C248.605 157.5 249.5 158.395 249.5 159.5V204.5C249.5 205.605 248.605 206.5 247.5 206.5C246.395 206.5 245.5 205.605 245.5 204.5V159.5Z" stroke="black"/>
<line x1="245" y1="197.5" x2="224" y2="197.5" stroke="black"/>
<line x1="245" y1="193.5" x2="224" y2="193.5" stroke="black"/>
<line x1="245" y1="189.5" x2="224" y2="189.5" stroke="black"/>
<line x1="245" y1="185.5" x2="224" y2="185.5" stroke="black"/>
<line x1="245" y1="181.5" x2="224" y2="181.5" stroke="black"/>
<line x1="270" y1="197.5" x2="249" y2="197.5" stroke="black"/>
<line x1="270" y1="193.5" x2="249" y2="193.5" stroke="black"/>
<line x1="270" y1="189.5" x2="249" y2="189.5" stroke="black"/>
<line x1="270" y1="185.5" x2="249" y2="185.5" stroke="black"/>
<line x1="270" y1="181.5" x2="249" y2="181.5" stroke="black"/>
<line x1="245" y1="177.5" x2="224" y2="177.5" stroke="black"/>
<line x1="245" y1="173.5" x2="224" y2="173.5" stroke="black"/>
<line x1="245" y1="169.5" x2="224" y2="169.5" stroke="black"/>
<line x1="245" y1="165.5" x2="224" y2="165.5" stroke="black"/>
<rect x="108" y="141" width="87" height="126" fill="#01020F" stroke="black" stroke-width="2"/>
<rect x="181" y="230" width="15" height="20" fill="#01020F"/>
<line x1="194.293" y1="251.293" x2="208.293" y2="237.293" stroke="black" stroke-width="2"/>
<rect x="108" y="268" width="141" height="163" fill="#0018B7" stroke="black" stroke-width="2"/>
<rect x="108" y="428" width="141" height="146" fill="#0018B7" stroke="black" stroke-width="2"/>
<rect x="108" y="571" width="141" height="128" fill="#0018B7" stroke="black" stroke-width="2"/>
<rect x="235" y="286" width="15" height="20" fill="#0018B7"/>
<path d="M235 438H250V458H235V438Z" fill="#0018B7"/>
<rect x="235" y="608" width="15" height="20" fill="#0018B7"/>
<rect x="270" y="141" width="116" height="126" fill="#F5F757" stroke="black" stroke-width="2"/>
<rect x="270" y="389" width="116" height="134" fill="#F5F757" stroke="black" stroke-width="2"/>
<rect x="270" y="593" width="116" height="106" fill="#F5F757" stroke="black" stroke-width="2"/>
<rect x="270" y="268" width="116" height="126" fill="#F5F757" stroke="black" stroke-width="2"/>
<rect x="283" y="513" width="14" height="20" transform="rotate(-180 283 513)" fill="#F5F757"/>
<rect x="285" y="387" width="16" height="20" transform="rotate(-180 285 387)" fill="#F5F757"/>
<rect x="284" y="683" width="15" height="20" transform="rotate(-180 284 683)" fill="#F5F757"/>
<rect x="283" y="257" width="14" height="20" transform="rotate(-180 283 257)" fill="#F5F757"/>
<circle cx="120" cy="14" r="12.75" fill="#01020F" stroke="black" stroke-width="0.5"/>
<circle cx="120" cy="50" r="12.75" fill="#F5F757" stroke="black" stroke-width="0.5"/>
<circle cx="120" cy="86" r="12.75" fill="#0018B7" stroke="#0018B7" stroke-width="0.5"/>
<path d="M152.26 17V10.14H153.75V15.73H157.21V17H152.26ZM158.468 17V10.14H159.958V17H158.468ZM161.776 17V10.14H163.266V15.73H166.726V17H161.776ZM167.984 17V10.14H169.474V15.73H172.934V17H167.984ZM174.192 17V10.14H179.672V11.36H175.692V12.89H179.212V14.1H175.692V15.77H179.732V17H174.192Z" fill="black"/>
<path d="M152.26 53V46.14H154.53L155.51 49.65C155.55 49.7767 155.59 49.9267 155.63 50.1C155.67 50.2733 155.71 50.4467 155.75 50.62C155.797 50.7867 155.833 50.9367 155.86 51.07H155.94C155.953 50.9567 155.977 50.8233 156.01 50.67C156.043 50.51 156.08 50.34 156.12 50.16C156.16 49.98 156.203 49.8067 156.25 49.64L157.23 46.14H159.46V53H157.99V49.75C157.99 49.45 157.99 49.15 157.99 48.85C157.997 48.5433 158.003 48.2767 158.01 48.05C158.023 47.8233 158.03 47.6767 158.03 47.61H157.95C157.937 47.6833 157.903 47.82 157.85 48.02C157.803 48.2133 157.75 48.42 157.69 48.64C157.637 48.86 157.587 49.05 157.54 49.21L156.47 53H155.17L154.09 49.22C154.05 49.08 154.003 48.9167 153.95 48.73C153.903 48.5367 153.857 48.34 153.81 48.14C153.77 47.9333 153.73 47.7567 153.69 47.61H153.61C153.617 47.79 153.623 48.0067 153.63 48.26C153.637 48.5067 153.643 48.7633 153.65 49.03C153.657 49.29 153.66 49.53 153.66 49.75V53H152.26ZM161.281 53V46.14H166.761V47.36H162.781V48.89H166.301V50.1H162.781V51.77H166.821V53H161.281ZM168.407 53V46.14H169.897V51.73H173.357V53H168.407ZM174.615 53V46.14H176.105V51.73H179.565V53H174.615ZM180.823 53V46.14H186.303V47.36H182.323V48.89H185.843V50.1H182.323V51.77H186.363V53H180.823ZM187.949 53V46.14H190.219L191.199 49.65C191.239 49.7767 191.279 49.9267 191.319 50.1C191.359 50.2733 191.399 50.4467 191.439 50.62C191.486 50.7867 191.523 50.9367 191.549 51.07H191.629C191.643 50.9567 191.666 50.8233 191.699 50.67C191.733 50.51 191.769 50.34 191.809 50.16C191.849 49.98 191.893 49.8067 191.939 49.64L192.919 46.14H195.149V53H193.679V49.75C193.679 49.45 193.679 49.15 193.679 48.85C193.686 48.5433 193.693 48.2767 193.699 48.05C193.713 47.8233 193.719 47.6767 193.719 47.61H193.639C193.626 47.6833 193.593 47.82 193.539 48.02C193.493 48.2133 193.439 48.42 193.379 48.64C193.326 48.86 193.276 49.05 193.229 49.21L192.159 53H190.859L189.779 49.22C189.739 49.08 189.693 48.9167 189.639 48.73C189.593 48.5367 189.546 48.34 189.499 48.14C189.459 47.9333 189.419 47.7567 189.379 47.61H189.299C189.306 47.79 189.313 48.0067 189.319 48.26C189.326 48.5067 189.333 48.7633 189.339 49.03C189.346 49.29 189.349 49.53 189.349 49.75V53H187.949Z" fill="black"/>
<path d="M154.93 89.12C154.53 89.12 154.15 89.08 153.79 89C153.43 88.92 153.11 88.7933 152.83 88.62C152.557 88.44 152.34 88.2167 152.18 87.95C152.027 87.6767 151.95 87.3467 151.95 86.96C151.95 86.9267 151.95 86.8933 151.95 86.86C151.95 86.82 151.953 86.79 151.96 86.77H153.44C153.433 86.79 153.43 86.8167 153.43 86.85C153.43 86.8833 153.43 86.9133 153.43 86.94C153.43 87.1533 153.487 87.3333 153.6 87.48C153.72 87.6267 153.893 87.7367 154.12 87.81C154.347 87.8833 154.61 87.92 154.91 87.92C155.103 87.92 155.273 87.91 155.42 87.89C155.573 87.8633 155.707 87.83 155.82 87.79C155.94 87.7433 156.037 87.69 156.11 87.63C156.19 87.57 156.247 87.5 156.28 87.42C156.32 87.34 156.34 87.25 156.34 87.15C156.34 86.97 156.28 86.8233 156.16 86.71C156.047 86.5967 155.887 86.5 155.68 86.42C155.48 86.34 155.253 86.2667 155 86.2C154.747 86.1333 154.487 86.0667 154.22 86C153.953 85.9267 153.693 85.84 153.44 85.74C153.187 85.6333 152.96 85.5067 152.76 85.36C152.56 85.2133 152.4 85.0267 152.28 84.8C152.16 84.5733 152.1 84.3 152.1 83.98C152.1 83.64 152.17 83.3467 152.31 83.1C152.457 82.8533 152.66 82.65 152.92 82.49C153.18 82.33 153.48 82.2133 153.82 82.14C154.16 82.06 154.53 82.02 154.93 82.02C155.303 82.02 155.657 82.06 155.99 82.14C156.323 82.2133 156.617 82.3333 156.87 82.5C157.123 82.6667 157.32 82.8767 157.46 83.13C157.607 83.3833 157.68 83.6833 157.68 84.03V84.15H156.23V84.07C156.23 83.89 156.177 83.7367 156.07 83.61C155.963 83.4833 155.813 83.3833 155.62 83.31C155.427 83.2367 155.2 83.2 154.94 83.2C154.66 83.2 154.42 83.2267 154.22 83.28C154.027 83.3333 153.877 83.4133 153.77 83.52C153.67 83.62 153.62 83.74 153.62 83.88C153.62 84.04 153.677 84.1733 153.79 84.28C153.91 84.38 154.07 84.47 154.27 84.55C154.477 84.6233 154.707 84.69 154.96 84.75C155.213 84.81 155.473 84.8767 155.74 84.95C156.007 85.0233 156.267 85.11 156.52 85.21C156.773 85.31 157 85.4367 157.2 85.59C157.4 85.7367 157.56 85.92 157.68 86.14C157.8 86.36 157.86 86.6233 157.86 86.93C157.86 87.4567 157.733 87.88 157.48 88.2C157.227 88.52 156.88 88.7533 156.44 88.9C156 89.0467 155.497 89.12 154.93 89.12ZM161.037 89V83.39H158.837V82.14H164.747V83.39H162.537V89H161.037ZM168.99 89.12C168.263 89.12 167.636 88.99 167.11 88.73C166.583 88.47 166.18 88.0767 165.9 87.55C165.62 87.0233 165.48 86.3633 165.48 85.57C165.48 84.7633 165.62 84.1 165.9 83.58C166.18 83.0533 166.583 82.6633 167.11 82.41C167.636 82.15 168.263 82.02 168.99 82.02C169.73 82.02 170.36 82.15 170.88 82.41C171.406 82.6633 171.81 83.0533 172.09 83.58C172.37 84.1 172.51 84.7633 172.51 85.57C172.51 86.3633 172.37 87.0233 172.09 87.55C171.81 88.0767 171.406 88.47 170.88 88.73C170.36 88.99 169.73 89.12 168.99 89.12ZM168.99 87.9C169.316 87.9 169.603 87.8533 169.85 87.76C170.096 87.6667 170.303 87.5267 170.47 87.34C170.636 87.1533 170.763 86.9267 170.85 86.66C170.936 86.3867 170.98 86.0767 170.98 85.73V85.42C170.98 85.0667 170.936 84.7533 170.85 84.48C170.763 84.2067 170.636 83.98 170.47 83.8C170.303 83.6133 170.096 83.4733 169.85 83.38C169.603 83.2867 169.316 83.24 168.99 83.24C168.67 83.24 168.386 83.2867 168.14 83.38C167.893 83.4733 167.686 83.6133 167.52 83.8C167.353 83.98 167.226 84.2067 167.14 84.48C167.06 84.7533 167.02 85.0667 167.02 85.42V85.73C167.02 86.0767 167.06 86.3867 167.14 86.66C167.226 86.9267 167.353 87.1533 167.52 87.34C167.686 87.5267 167.893 87.6667 168.14 87.76C168.386 87.8533 168.67 87.9 168.99 87.9ZM174.019 89V82.14H177.779C178.286 82.14 178.706 82.23 179.039 82.41C179.379 82.59 179.633 82.8433 179.799 83.17C179.966 83.49 180.049 83.86 180.049 84.28C180.049 84.7267 179.949 85.1233 179.749 85.47C179.549 85.81 179.259 86.07 178.879 86.25L180.279 89H178.629L177.419 86.5H175.509V89H174.019ZM175.509 85.32H177.579C177.879 85.32 178.113 85.23 178.279 85.05C178.446 84.8633 178.529 84.6133 178.529 84.3C178.529 84.1 178.493 83.93 178.419 83.79C178.346 83.6433 178.239 83.5333 178.099 83.46C177.959 83.3867 177.786 83.35 177.579 83.35H175.509V85.32Z" fill="black"/>
<path d="M49 675.883L0.979996 675.883L0.979994 650.893C0.979994 647.44 1.63333 644.57 2.93999 642.283C4.19999 639.95 5.99666 638.2 8.33 637.033C10.6167 635.82 13.3467 635.213 16.52 635.213C19.6933 635.213 22.47 635.843 24.85 637.103C27.1833 638.316 29.0033 640.113 30.31 642.493C31.6167 644.873 32.27 647.79 32.27 651.243L32.27 665.453L49 665.453L49 675.883ZM23.73 665.453L23.73 652.643C23.73 650.45 23.1 648.77 21.84 647.603C20.58 646.39 18.83 645.783 16.59 645.783C15.05 645.783 13.7667 646.04 12.74 646.553C11.7133 647.066 10.92 647.836 10.36 648.863C9.8 649.843 9.52 651.103 9.52 652.643L9.52 665.453L23.73 665.453ZM49 628.237L0.979993 628.237L0.979993 617.807L40.11 617.807L40.11 593.587L49 593.587L49 628.237ZM49 591.779L0.979991 573.299L0.97999 560.419L49 541.939L49 553.209L39.55 556.639L39.55 577.569L49 580.999L49 591.779ZM31.15 574.559L31.15 559.649L19.32 563.919C18.8067 564.106 18.2 564.339 17.5 564.619C16.7533 564.853 15.9367 565.109 15.05 565.389C14.1633 565.669 13.3 565.949 12.46 566.229C11.5733 566.463 10.78 566.696 10.08 566.929L10.08 567.349C10.9667 567.583 12.0167 567.886 13.23 568.259C14.3967 568.633 15.54 569.006 16.66 569.379C17.7333 569.753 18.62 570.056 19.32 570.289L31.15 574.559ZM49 536.225L0.979989 536.225L0.979989 526.635L26.88 507.315C27.2067 507.035 27.6733 506.685 28.28 506.265C28.84 505.845 29.4 505.448 29.96 505.075C30.52 504.702 30.9633 504.445 31.29 504.305L31.29 503.955C30.4967 503.955 29.7267 503.955 28.98 503.955C28.1867 503.955 27.4867 503.955 26.88 503.955L0.979988 503.955L0.979988 494.085L49 494.085L49 503.675L22.47 523.415C21.8167 523.882 21.0933 524.372 20.3 524.885C19.5067 525.398 18.9 525.772 18.48 526.005L18.48 526.355C19.18 526.355 19.88 526.355 20.58 526.355C21.2333 526.355 21.8633 526.355 22.47 526.355L49 526.355L49 536.225ZM49 471.621L9.72999 471.621L9.72999 487.021L0.979987 487.021L0.979985 445.651L9.72999 445.651L9.72999 461.121L49 461.121L49 471.621ZM49 438.608L0.979985 438.608L0.979983 400.248L9.51999 400.248L9.51999 428.108L20.23 428.108L20.23 403.468L28.7 403.468L28.7 428.108L40.39 428.108L40.39 399.828L49 399.828L49 438.608ZM49.84 368.985C49.84 376.545 47.8333 382.378 43.82 386.485C39.76 390.545 33.4833 392.575 24.99 392.575C19.3433 392.575 14.7 391.595 11.06 389.635C7.37332 387.675 4.64332 384.828 2.86998 381.095C1.04998 377.361 0.139985 372.881 0.139985 367.655C0.139984 364.528 0.489984 361.588 1.18998 358.835C1.88998 356.081 2.96332 353.655 4.40998 351.555C5.85665 349.408 7.67665 347.751 9.86998 346.585C12.0167 345.371 14.5833 344.765 17.57 344.765L17.57 355.335C16.1233 355.335 14.84 355.661 13.72 356.315C12.6 356.921 11.6667 357.785 10.92 358.905C10.1733 360.025 9.61332 361.308 9.23998 362.755C8.86665 364.201 8.67998 365.718 8.67998 367.305C8.67998 369.731 9.00665 371.855 9.65998 373.675C10.2667 375.495 11.2233 377.011 12.53 378.225C13.79 379.391 15.3767 380.278 17.29 380.885C19.2033 381.491 21.42 381.795 23.94 381.795L26.04 381.795C29.54 381.795 32.41 381.281 34.65 380.255C36.89 379.228 38.57 377.688 39.69 375.635C40.7633 373.581 41.3 371.038 41.3 368.005C41.3 365.485 40.9267 363.268 40.18 361.355C39.3867 359.395 38.2667 357.878 36.82 356.805C35.3733 355.685 33.6 355.125 31.5 355.125L31.01 355.125L31.01 369.475L23.03 369.475L23.03 344.765L49 344.765L49 351.625L43.82 352.535C45.1733 353.935 46.2933 355.451 47.18 357.085C48.0667 358.671 48.72 360.445 49.14 362.405C49.6067 364.365 49.84 366.558 49.84 368.985ZM49 334.701L0.979981 334.701L0.97998 325.111L26.88 305.791C27.2066 305.511 27.6733 305.161 28.28 304.741C28.84 304.321 29.4 303.925 29.96 303.551C30.52 303.178 30.9633 302.921 31.29 302.781L31.29 302.431C30.4966 302.431 29.7266 302.431 28.98 302.431C28.1866 302.431 27.4866 302.431 26.88 302.431L0.979979 302.431L0.979979 292.561L49 292.561L49 302.151L22.47 321.891C21.8166 322.358 21.0933 322.848 20.3 323.361C19.5066 323.875 18.9 324.248 18.48 324.481L18.48 324.831C19.18 324.831 19.88 324.831 20.58 324.831C21.2333 324.831 21.8633 324.831 22.47 324.831L49 324.831L49 334.701ZM49 281.928L0.979978 281.928L0.979978 271.498L49 271.498L49 281.928ZM49 260.873L0.979977 260.873L0.979977 251.283L26.88 231.963C27.2066 231.683 27.6733 231.333 28.28 230.913C28.84 230.493 29.4 230.097 29.96 229.723C30.52 229.35 30.9633 229.093 31.29 228.953L31.29 228.603C30.4966 228.603 29.7266 228.603 28.98 228.603C28.1866 228.603 27.4866 228.603 26.88 228.603L0.979976 228.603L0.979976 218.733L49 218.733L49 228.323L22.47 248.063C21.8166 248.53 21.0933 249.02 20.3 249.533C19.5066 250.047 18.9 250.42 18.48 250.653L18.48 251.003C19.18 251.003 19.88 251.003 20.58 251.003C21.2333 251.003 21.8633 251.003 22.47 251.003L49 251.003L49 260.873ZM49.84 186.26C49.84 193.82 47.8333 199.653 43.82 203.76C39.76 207.82 33.4833 209.85 24.99 209.85C19.3433 209.85 14.7 208.87 11.06 206.91C7.37331 204.95 4.64331 202.103 2.86998 198.37C1.04998 194.637 0.139977 190.157 0.139977 184.93C0.139976 181.803 0.489976 178.863 1.18998 176.11C1.88997 173.357 2.96331 170.93 4.40998 168.83C5.85664 166.683 7.67664 165.027 9.86998 163.86C12.0166 162.647 14.5833 162.04 17.57 162.04L17.57 172.61C16.1233 172.61 14.84 172.937 13.72 173.59C12.6 174.197 11.6666 175.06 10.92 176.18C10.1733 177.3 9.61331 178.583 9.23998 180.03C8.86664 181.477 8.67997 182.993 8.67998 184.58C8.67998 187.007 9.00664 189.13 9.65998 190.95C10.2666 192.77 11.2233 194.287 12.53 195.5C13.79 196.667 15.3766 197.553 17.29 198.16C19.2033 198.767 21.42 199.07 23.94 199.07L26.04 199.07C29.54 199.07 32.41 198.557 34.65 197.53C36.89 196.503 38.57 194.963 39.69 192.91C40.7633 190.857 41.3 188.313 41.3 185.28C41.3 182.76 40.9266 180.543 40.18 178.63C39.3866 176.67 38.2666 175.153 36.82 174.08C35.3733 172.96 33.6 172.4 31.5 172.4L31.01 172.4L31.01 186.75L23.03 186.75L23.03 162.04L49 162.04L49 168.9L43.82 169.81C45.1733 171.21 46.2933 172.727 47.18 174.36C48.0666 175.947 48.72 177.72 49.14 179.68C49.6066 181.64 49.84 183.833 49.84 186.26Z" fill="#373F41"/>
</svg>
